<svg width="200" height="200" viewBox="0 0 200 200" fill="none" xmlns="http://www.w3.org/2000/svg">
  <defs>
    <linearGradient id="paint0_linear" x1="0" y1="0" x2="200" y2="200" gradientUnits="userSpaceOnUse">
      <stop offset="0" stop-color="#FF6633" />
      <stop offset="0.5" stop-color="#FF3366" />
      <stop offset="1" stop-color="#8833FF" />
    </linearGradient>
  </defs>
  <circle cx="100" cy="100" r="95" fill="url(#paint0_linear)" />
  <path fill="black" d="M75.5,52.5c-6.1,2.1-16.6,8.2-23.2,13.6c-3.5,2.9-4.8,4-6.5,5.9c-3.9,4-6.9,8-8.9,12.6c-1.4,3.1-2.8,8.1-3.4,12c-0.4,2.7-0.4,8.1,0,10.9c1.3,8.2,5.1,15.7,11.2,22.2c3.2,3.4,5.4,5.1,9,6.8c1.4,0.7,2.8,1.4,3.1,1.6c0.3,0.2,1.4,0.5,2.4,0.7c1,0.2,1.8,0.5,1.8,0.7c0,0.3-0.9,1.2-1.8,1.8c-0.3,0.2-0.9,0.8-1.4,1.4c-0.5,0.5-1,0.9-1.2,0.9c-0.3,0-0.3,0.2,0,0.5c0.3,0.3,0.9,0.3,1.6,0c0.7-0.3,1.2-0.2,1.4,0.2c0.2,0.3,0.7,0.6,1.2,0.6c0.5,0,0.9,0.2,0.9,0.5c0,0.2,0.3,0.5,0.7,0.5c0.4,0,0.7,0.3,0.7,0.6c0,0.3-0.4,0.6-0.9,0.6c-0.5,0-0.9,0.2-0.9,0.5c0,0.3,0.3,0.4,0.7,0.4c0.4,0,0.7,0.1,0.7,0.3c0,0.7,1.6,3.4,2.8,4.7c1.6,1.8,4.1,3.8,5.9,4.8c0.7,0.4,1.6,0.9,2.1,1.2c0.5,0.3,1.2,0.6,1.7,0.6c0.5,0,0.9,0.2,0.9,0.4c0,0.2,0.6,0.4,1.4,0.4c0.8,0,1.7,0.2,2.1,0.4c0.4,0.2,1.4,0.5,2.1,0.5c0.7,0,1.9,0.2,2.6,0.4c0.7,0.2,2.3,0.5,3.5,0.5c2.3,0.1,3.2,0.2,5.4,0.5c1.9,0.3,6,0.3,8.9,0c2.9-0.3,4.7-0.6,7.1-1.4c1.4-0.4,2.7-0.8,2.9-0.8c0.8,0,5.2-2.1,6.9-3.3c0.6-0.4,1.6-1,2.2-1.2c0.6-0.3,1.9-1.2,2.9-2.1c1-0.9,1.9-1.6,2.1-1.6c0.1,0,0.7-0.4,1.2-0.8c0.5-0.5,1.8-1.7,2.9-2.7c1-1,2.6-2.7,3.5-3.7c2.8-3.3,5.2-6.6,7.3-10.2c1.1-1.9,2.3-4.1,2.6-4.8c0.3-0.7,0.7-1.7,0.9-2.1c0.2-0.4,0.4-0.9,0.4-1.2c0-0.2,0.2-0.6,0.5-0.9c0.3-0.3,0.5-0.8,0.5-1.1c0-0.3,0.1-0.7,0.3-0.8c0.2-0.1,0.5-0.9,0.8-1.8c0.3-0.9,0.6-1.9,0.7-2.3c0.1-0.4,0.5-1.7,0.8-2.9c0.8-2.9,1-3.9,1.3-6.4c0.7-5.4,0.4-11.6-0.9-17.3c-0.4-1.6-0.8-3.5-1-4.3c-0.2-0.8-0.5-1.6-0.7-1.9c-0.2-0.2-0.4-0.8-0.4-1.2c0-0.4-0.2-1-0.4-1.4c-0.2-0.3-0.8-1.4-1.2-2.5c-0.4-1-1-2.1-1.2-2.5c-0.2-0.3-0.6-0.8-0.7-1.2c-0.5-1-3.7-5.5-4.3-6c-0.3-0.3-0.9-0.9-1.2-1.4c-0.3-0.5-0.9-1-1.2-1.2c-0.3-0.2-1.2-1-1.9-1.8c-0.7-0.8-1.8-1.7-2.4-2.1c-0.6-0.4-1.1-0.8-1.1-0.9c0-0.2-2.4-1.8-3.3-2.2c-0.5-0.2-1.3-0.7-1.8-1c-0.5-0.3-1.1-0.6-1.4-0.6c-0.3,0-0.9-0.3-1.4-0.6c-0.5-0.4-1.1-0.7-1.4-0.7c-0.8,0-6-2.1-6.7-2.6c-0.4-0.3-1.2-0.4-1.7-0.4c-0.5,0-1.4-0.2-1.9-0.4c-0.9-0.3-3.2-0.7-7.3-1.2c-1.1-0.1-3.9,0-5.5,0.2c-0.5,0.1-1.6,0.3-2.5,0.4c-0.9,0.2-2.1,0.4-2.7,0.6c-0.6,0.2-1.7,0.5-2.5,0.7c-0.8,0.2-1.7,0.4-2.1,0.5c-0.4,0.1-1.2,0.4-1.9,0.7c-0.7,0.3-1.8,0.8-2.6,1.1c-0.8,0.3-1.7,0.6-2.1,0.6c-0.4,0-0.7,0.2-0.7,0.4c0,0.2-0.6,0.6-1.2,0.8c-0.6,0.2-1.6,0.7-2.1,1c-0.5,0.3-1.2,0.6-1.6,0.7c-0.3,0.1-0.8,0.5-1.1,0.8z" />
  <path fill="white" d="M130,85 a15,15 0 1,1 0,30 a15,15 0 1,1 0,-30 z" />
  <path fill="black" d="M130,90 a10,10 0 1,1 0,20 a10,10 0 1,1 0,-20 z" />
  <path fill="white" d="M128,95 a2,2 0 1,1 0,4 a2,2 0 1,1 0,-4 z" />
</svg>